<svg width="26" height="26" viewBox="0 0 26 26" fill="none" xmlns="http://www.w3.org/2000/svg">
<path d="M24.1997 16.1844C24.1796 16.2143 24.1595 16.2444 24.139 16.274C23.8534 16.6918 23.8627 16.7464 23.9341 17.0365L24.9624 20.9531C24.973 20.993 24.9727 21.0349 24.9617 21.0746C24.9507 21.1142 24.9294 21.1503 24.8998 21.179C24.8703 21.2077 24.8336 21.2281 24.7937 21.2379C24.7537 21.2478 24.7118 21.2468 24.6723 21.2352L20.1794 19.9364C19.9537 19.8714 19.6705 19.9422 19.4894 20.0113C19.3083 20.0803 18.6085 20.3363 17.9022 20.5301C17.196 20.7239 15.9082 21.0112 14.9524 21.0112C8.9403 21.0112 4.26522 16.2113 4.26522 10.4429C4.26579 9.72421 4.34361 9.00765 4.49735 8.30558C5.5222 3.5684 9.89667 0 15.1405 0C21.1526 0 26.0146 4.6745 25.996 10.4371C25.9937 12.4477 25.3931 14.4121 24.2707 16.0802C24.2468 16.114 24.2233 16.1491 24.1997 16.1844Z" fill="white"/>
<path d="M14.9305 22.3687C15.3826 22.3609 15.8337 22.3212 16.2803 22.2497C16.3325 22.2416 16.3859 22.2502 16.4329 22.2743C16.4798 22.2985 16.5179 22.337 16.5415 22.3842C16.5652 22.4315 16.5732 22.485 16.5644 22.5371C16.5556 22.5891 16.5305 22.6371 16.4927 22.674C14.6609 24.3964 12.2388 25.3517 9.72438 25.3434C8.41807 25.3434 7.11177 25.0579 5.93081 24.5937C5.81282 24.5423 5.68586 24.5147 5.5572 24.5126C5.42853 24.5104 5.3007 24.5336 5.18103 24.5809L1.23484 25.9876C1.19642 26.0007 1.15525 26.0035 1.11542 25.9957C1.07559 25.9879 1.0385 25.9698 1.00785 25.9432C0.977199 25.9166 0.954057 25.8824 0.940732 25.8441C0.927408 25.8057 0.924366 25.7646 0.931911 25.7247L1.74959 21.5313C1.77454 21.4187 1.69329 21.2498 1.54995 21.0311C0.406508 19.3179 -0.129889 17.271 0.0264272 15.2172C0.182743 13.1634 1.02276 11.2212 2.41231 9.70084C2.44721 9.66264 2.49302 9.63612 2.54352 9.62487C2.59402 9.61363 2.64676 9.61821 2.69457 9.63799C2.74237 9.65777 2.78293 9.69179 2.81071 9.73544C2.8385 9.77908 2.85218 9.83022 2.84988 9.8819L2.84982 9.88362C2.84345 10.0583 2.83711 10.2324 2.83711 10.4135C2.83711 13.0818 3.66233 15.6317 5.17581 17.6379C6.00302 18.7867 7.05028 19.7596 8.25674 20.5001C10.1428 21.7187 12.4681 22.3687 14.9305 22.3687Z" fill="white"/>
</svg>
